<svg version="1.1" xmlns="http://www.w3.org/2000/svg" xmlns:xlink="http://www.w3.org/1999/xlink" width="29.57146" height="29.57146" viewBox="0,0,29.57146,29.57146"><g transform="translate(-225.21427,-165.21427)"><g data-paper-data="{&quot;isPaintingLayer&quot;:true}" fill-rule="nonzero" stroke="none" stroke-width="0" stroke-linecap="butt" stroke-linejoin="miter" stroke-miterlimit="10" stroke-dasharray="" stroke-dashoffset="0" style="mix-blend-mode: normal"><path d="M225.21427,180c0,-8.16593 6.6198,-14.78573 14.78573,-14.78573c8.16593,0 14.78573,6.6198 14.78573,14.78573c0,8.16593 -6.6198,14.78573 -14.78573,14.78573c-8.16593,0 -14.78573,-6.6198 -14.78573,-14.78573z" fill="#00f3cf"/><path d="M227.48254,180c0,-6.9132 5.60426,-12.51746 12.51746,-12.51746c6.9132,0 12.51746,5.60426 12.51746,12.51746c0,6.9132 -5.60426,12.51746 -12.51746,12.51746c-6.9132,0 -12.51746,-5.60426 -12.51746,-12.51746z" fill="#2dffdc"/><path d="M234.8754,180c0,-2.83024 2.29436,-5.1246 5.1246,-5.1246c2.83024,0 5.1246,2.29436 5.1246,5.1246c0,2.83024 -2.29436,5.1246 -5.1246,5.1246c-2.83024,0 -5.1246,-2.29436 -5.1246,-5.1246z" fill="#00f3cf"/></g></g></svg>